<svg xmlns="http://www.w3.org/2000/svg" width="19" height="18" viewBox="0 0 19 18">
  <path fill="#24272C" fill-rule="evenodd" d="M155.753737,4.19582812 C155.753737,4.79235937 155.270128,5.27582812 154.673737,5.27582812 C154.077346,5.27582812 153.593737,4.79235937 153.593737,4.19582812 C153.593737,3.59929687 154.077346,3.11582812 154.673737,3.11582812 C155.270268,3.11582812 155.753737,3.59929687 155.753737,4.19582812 Z M149.869565,11.9999531 C148.212721,11.9999531 146.869612,10.6568437 146.869612,9 C146.869612,7.34315625 148.212721,6.00004687 149.869565,6.00004687 C151.526409,6.00004687 152.869518,7.34315625 152.869518,9 C152.869518,10.6568437 151.526409,11.9999531 149.869565,11.9999531 Z M149.869565,4.37835938 C147.317081,4.37835938 145.247925,6.44751562 145.247925,9 C145.247925,11.5524844 147.317081,13.6216406 149.869565,13.6216406 C152.42205,13.6216406 154.491206,11.5524844 154.491206,9 C154.491206,6.44751562 152.42205,4.37835938 149.869565,4.37835938 Z M149.869565,1.6216875 C152.272706,1.6216875 152.557331,1.63082812 153.506268,1.67414062 C154.383768,1.71421875 154.860346,1.86075 155.177456,1.98407812 C155.597503,2.14734375 155.897315,2.34239062 156.212315,2.65739062 C156.527315,2.97225 156.722362,3.2720625 156.885628,3.69225 C157.008815,4.00935937 157.155487,4.4859375 157.195565,5.3634375 C157.238878,6.31251562 157.248018,6.59714062 157.248018,9.00028125 C157.248018,11.4034219 157.238878,11.6880469 157.195565,12.6369844 C157.155487,13.5144844 157.008956,13.9910625 156.885628,14.3081719 C156.722362,14.7282187 156.527315,15.0280312 156.212315,15.3430312 C155.897456,15.6580312 155.597643,15.8530781 155.177456,16.0163437 C154.860346,16.1395312 154.383768,16.2862031 153.506268,16.3262812 C152.557331,16.3695937 152.272706,16.3787344 149.869565,16.3787344 C147.466284,16.3787344 147.181659,16.3695937 146.232721,16.3262812 C145.355221,16.2862031 144.878643,16.1396719 144.561534,16.0163437 C144.141487,15.8530781 143.841675,15.6580312 143.526675,15.3430312 C143.211815,15.0281719 143.016628,14.7283594 142.853362,14.3081719 C142.730175,13.9910625 142.583503,13.5144844 142.543425,12.6369844 C142.500112,11.6879062 142.490971,11.4032812 142.490971,9.00028125 C142.490971,6.59714062 142.500112,6.31251562 142.543425,5.3634375 C142.583503,4.4859375 142.730034,4.00935937 142.853362,3.69225 C143.016628,3.27220312 143.211675,2.97239062 143.526675,2.65739062 C143.841534,2.34239062 144.141346,2.14734375 144.561534,1.98407812 C144.878643,1.86089062 145.355221,1.71421875 146.232721,1.67414062 C147.1818,1.63082812 147.466425,1.6216875 149.869565,1.6216875 Z M149.869565,0 C147.425362,0 147.1188,0.01040625 146.158893,0.054140625 C145.200956,0.097875 144.546628,0.25003125 143.974284,0.4725 C143.382393,0.702421875 142.880503,1.01025 142.380159,1.51059375 C141.879815,2.0109375 141.571987,2.51282812 141.342065,3.10471875 C141.119596,3.67720312 140.96744,4.33139062 140.923706,5.28932812 C140.879971,6.24923437 140.869565,6.55579687 140.869565,9 C140.869565,11.4442031 140.879971,11.7507656 140.923706,12.7106719 C140.96744,13.6686094 141.119596,14.3227969 141.342065,14.8952812 C141.571987,15.4871719 141.879815,15.9890625 142.380159,16.4894062 C142.880503,16.98975 143.382393,17.2974375 143.974284,17.5275 C144.546768,17.7499687 145.200956,17.902125 146.158893,17.9458594 C147.1188,17.9895937 147.425362,18 149.869565,18 C152.313768,18 152.620331,17.9895937 153.580237,17.9458594 C154.538175,17.902125 155.192362,17.7499687 155.764846,17.5275 C156.356737,17.2974375 156.858628,16.98975 157.358971,16.4894062 C157.859315,15.9890625 158.167003,15.4871719 158.397065,14.8952812 C158.619534,14.3227969 158.77169,13.6686094 158.815425,12.7106719 C158.859159,11.7507656 158.869565,11.4442031 158.869565,9 C158.869565,6.55579687 158.859159,6.24923437 158.815425,5.28932812 C158.77169,4.33139062 158.619534,3.67720312 158.397065,3.10471875 C158.167003,2.51282812 157.859315,2.0109375 157.358971,1.51059375 C156.858628,1.01025 156.356737,0.7025625 155.764846,0.4725 C155.192362,0.25003125 154.538175,0.097875 153.580237,0.054140625 C152.620331,0.01040625 152.313768,0 149.869565,0 Z" transform="translate(-140)"/>
</svg>
