<svg xmlns="http://www.w3.org/2000/svg" width="19" height="17" viewBox="0 0 19 17">
  <path d="M.567246286 16.4460432L2.83815912 16.4460432C3.15145604 16.4460432 3.40540541 16.1794711 3.40540541 15.8506424L3.40540541 5.43243912C3.40540541 5.10357729 3.15145604 4.83707152 2.83815912 4.83707152L.567246286 4.83707152C.253917766 4.83707152 0 5.10357729 0 5.43243912L0 15.8506424C0 16.1794379.253917766 16.4460432.567246286 16.4460432zM.567246286 3.38595006L2.83815912 3.38595006C3.15145604 3.38595006 3.40540541 3.11307196 3.40540541 2.77642268L3.40540541.60952738C3.40540541.272878107 3.15145604 0 2.83815912 0L.567246286 0C.253917766 0 0 .272878107 0 .60952738L0 2.77642268C0 3.11307196.253917766 3.38595006.567246286 3.38595006zM17.1142073 6.3119751C16.7833743 5.8824022 16.2955445 5.52913246 15.6505216 5.25223052 15.0054986 4.97552249 14.2935096 4.83707152 13.5145219 4.83707152 11.9331541 4.83707152 10.5931785 5.43240423 9.4946279 6.62329587 9.27603824 6.86025257 9.11710862 6.80844657 9.11710862 6.48801208L9.11710862 5.71467098C9.11710862 5.39423649 8.85379851 5.13456012 8.52899367 5.13456012L6.42592003 5.13456012C6.10108243 5.13456012 5.83783784 5.39423649 5.83783784 5.71467098L5.83783784 15.8659C5.83783784 16.1863022 6.10111519 16.4460432 6.42592003 16.4460432L8.78024728 16.4460432C9.10508488 16.4460432 9.36832947 16.1863022 9.36832947 15.8659L9.36832947 12.3355618C9.36832947 10.8648273 9.4583601 9.85672714 9.63842137 9.31142293 9.81841711 8.76611873 10.151478 8.32824006 10.6372765 7.99772231 11.1231405 7.66720455 11.6717114 7.50186488 12.2832514 7.50186488 12.7606627 7.50186488 13.1690441 7.61756387 13.5083298 7.84899416 13.8475828 8.08039214 14.0926116 8.40454323 14.2433834 8.82189986 14.3942207 9.23919186 14.4695739 10.1583848 14.4695739 11.5796079L14.4695739 15.8658677C14.4695739 16.1862698 14.7328185 16.4460432 15.0576233 16.4460432L17.4119506 16.4460432C17.7367554 16.4460432 18 16.1862698 18 15.8658677L18 10.1170499C18 9.10080553 17.9350652 8.3199343 17.8053595 7.77463009 17.6756538 7.22932589 17.445237 6.74177422 17.1142073 6.3119751z" transform="translate(.87)"/>
</svg>
