<svg xmlns="http://www.w3.org/2000/svg" width="20" height="17" viewBox="0 0 20 17">
  <path fill="#24272C" d="M57.3913043,3.47613928 C57.3012102,4.18661994 56.2755755,4.89944607 55.6541783,5.43947751 C56.2673086,14.5201956 46.0551291,20.1846621 38.6086957,15.5831866 C40.6971661,15.5989512 43.0119053,15.0230458 44.2543171,13.8380526 C42.4479173,13.5440633 41.1681129,12.7210392 40.6715233,11.1112495 C41.2006448,11.0610722 41.9432521,11.2254078 42.3000694,11.0022051 C40.6476793,10.3717006 39.341084,9.39391493 39.2601371,7.18457306 C39.8486963,7.2477081 40.1546491,7.59475856 40.8886449,7.51182173 C39.8201447,6.82356521 38.600046,4.20653709 39.6944186,2.27634283 C41.6335868,4.43658395 44.0543034,6.11308454 47.8371492,6.42110817 C46.8987383,2.41199473 52.1885758,-0.0721883522 54.5684936,2.82171883 C55.4937769,2.62420075 56.2735854,2.28053389 57.0655645,1.94913261 C56.7412025,2.85947682 56.0822979,3.43353658 55.4370184,4.02151528 C56.1383675,3.88990064 56.8794056,3.79815874 57.3913043,3.47613928 Z" transform="translate(-38 -1)"/>
</svg>
