<svg xmlns="http://www.w3.org/2000/svg" width="24" height="18" viewBox="0 0 24 18">
  <path fill="#24272C" d="M99.1622645,17.2132071 C96.6489079,17.2273287 94.1355512,17.1943784 91.6269101,17.05787 C90.8111302,17.0107981 89.9953502,16.9401903 89.2550182,16.5400793 C88.7598916,16.2717696 88.3779369,15.8999018 88.1374468,15.3726968 C87.7319146,14.49716 87.6045963,13.5745512 87.5291485,12.6331137 C87.3688218,10.6890453 87.3593908,8.74497683 87.4442697,6.80561558 C87.4867091,5.77474152 87.5197175,4.73445308 87.764923,3.72240777 C87.8592329,3.32700402 87.9959821,2.94101465 88.1798862,2.57385402 C88.6137114,1.71243871 89.3681899,1.28408465 90.2782797,1.10521152 C91.0421892,0.954581523 91.8249607,0.95928871 92.6030167,0.926338398 C95.2389761,0.818073085 97.879651,0.761586835 100.520326,0.78982996 C102.552702,0.813365898 104.589795,0.86514496 106.622171,0.968703085 C107.249331,1.0016534 107.881207,1.01106777 108.480075,1.23230559 C109.291139,1.53356558 109.894722,2.04194183 110.220091,2.86569965 C110.536029,3.65650715 110.658631,4.47555777 110.724648,5.31814433 C110.908552,7.60583746 110.913268,9.89353058 110.762372,12.1812237 C110.710502,12.9532025 110.658631,13.7251812 110.455865,14.4830384 C109.998463,16.2246978 108.909184,16.90724 107.310633,17.0155053 C105.603625,17.1284778 103.891902,17.1896712 102.180179,17.2132071 C101.175779,17.2226215 100.166664,17.2132071 99.1622645,17.2132071 Z M96.6866318,12.3977543 C98.9689294,11.1503496 101.222934,9.91706652 103.514663,8.66495464 C101.218219,7.40813558 98.9642139,6.17955964 96.6866318,4.93215496 C96.6866318,7.44108589 96.6866318,9.90294495 96.6866318,12.3977543 Z" transform="translate(-87)"/>
</svg>
